HIERARCHY
ROOT Hips
{
 OFFSET 0.000000 0.000000 0.000000
 CHANNELS 6 Xposition Yposition Zposition Yrotation Xrotation Zrotation
 JOINT Chest
 {
  OFFSET 0.000000 9.585900 0.002600
  CHANNELS 3 Yrotation Xrotation Zrotation
  JOINT Chest2
  {
   OFFSET 0.000000 9.601200 -0.005300
   CHANNELS 3 Yrotation Xrotation Zrotation
   JOINT Chest3
   {
    OFFSET 0.000000 9.561800 0.000000
    CHANNELS 3 Yrotation Xrotation Zrotation
    JOINT Chest4
    {
     OFFSET 0.000000 9.552100 0.000000
     CHANNELS 3 Yrotation Xrotation Zrotation
     JOINT Neck
     {
      OFFSET 0.000000 14.453000 0.000000
      CHANNELS 3 Yrotation Xrotation Zrotation
      JOINT Head
      {
       OFFSET 0.000000 8.936500 -0.011300
       CHANNELS 3 Yrotation Xrotation Zrotation
       End Site
       {
        OFFSET 0.000000 17.073600 -0.006000
       }
      }
     }
     JOINT RightCollar
     {
      OFFSET -2.921100 9.558500 0.000000
      CHANNELS 3 Yrotation Xrotation Zrotation
      JOINT RightShoulder
      {
       OFFSET -13.519700 0.000000 0.000000
       CHANNELS 3 Yrotation Xrotation Zrotation
       JOINT RightElbow
       {
        OFFSET 0.000000 -29.696600 0.000000
        CHANNELS 3 Yrotation Xrotation Zrotation
        JOINT RightWrist
        {
         OFFSET 0.000000 -24.004700 0.000000
         CHANNELS 3 Yrotation Xrotation Zrotation
         End Site
         {
          OFFSET 0.000000 -17.728500 0.000000
         }
        }
       }
      }
     }
     JOINT LeftCollar
     {
      OFFSET 2.921100 9.558500 0.000000
      CHANNELS 3 Yrotation Xrotation Zrotation
      JOINT LeftShoulder
      {
       OFFSET 13.519700 0.000000 0.000000
       CHANNELS 3 Yrotation Xrotation Zrotation
       JOINT LeftElbow
       {
        OFFSET 0.000000 -29.696600 0.000000
        CHANNELS 3 Yrotation Xrotation Zrotation
        JOINT LeftWrist
        {
         OFFSET 0.000000 -24.004700 0.000000
         CHANNELS 3 Yrotation Xrotation Zrotation
         End Site
         {
          OFFSET 0.000000 -17.728500 0.000000
         }
        }
       }
      }
     }
    }
   }
  }
 }
 JOINT RightHip
 {
  OFFSET -7.771700 -0.012900 -0.001300
  CHANNELS 3 Yrotation Xrotation Zrotation
  JOINT RightKnee
  {
   OFFSET 0.000000 -40.869800 0.001200
   CHANNELS 3 Yrotation Xrotation Zrotation
   JOINT RightAnkle
   {
    OFFSET 0.000000 -39.717900 0.002100
    CHANNELS 3 Yrotation Xrotation Zrotation
    JOINT RightToe
    {
     OFFSET 0.000000 -4.965400 11.033500
     CHANNELS 3 Yrotation Xrotation Zrotation
     End Site
     {
      OFFSET 0.000000 -1.423100 5.872300
     }
    }
   }
  }
 }
 JOINT LeftHip
 {
  OFFSET 7.771700 -0.012900 -0.001300
  CHANNELS 3 Yrotation Xrotation Zrotation
  JOINT LeftKnee
  {
   OFFSET 0.000000 -40.869800 0.001200
   CHANNELS 3 Yrotation Xrotation Zrotation
   JOINT LeftAnkle
   {
    OFFSET 0.000000 -39.717900 0.002100
    CHANNELS 3 Yrotation Xrotation Zrotation
    JOINT LeftToe
    {
     OFFSET 0.000000 -4.965400 11.033500
     CHANNELS 3 Yrotation Xrotation Zrotation
     End Site
     {
      OFFSET 0.000000 -1.423100 5.872300
     }
    }
   }
  }
 }
}
MOTION
Frames: 8
Frame Time: 0.008333
0.000000 85.388000 0.000000 0.000000 -5.767877 0.000000 0.000000 11.653817 0.000000 0.000000 -5.885947 0.000000 0.000000 -0.000000 0.000000 0.000000 -0.000000 0.000000 0.000000 12.528835 0.000000 0.000000 0.711642 0.000000 0.000000 -0.000000 0.000000 0.000000 0.000000 -90.000000 0.000000 -2.309062 0.000000 0.000000 2.309062 0.000000 0.000000 -0.000000 0.000000 0.000000 -0.000000 90.000000 0.000000 -2.309062 0.000000 0.000000 2.309062 0.000000 0.000000 8.520406 0.000000 0.000000 1.905762 0.000000 -0.000000 -4.658285 0.000000 0.000000 -0.000000 0.000000 0.000000 8.520406 0.000000 0.000000 1.905762 0.000000 -0.000000 -4.658285 0.000000 0.000000 -0.000000 0.000000
-47.478573 55.769849 44.304633 -166.955082 -30.341533 -11.417318 -3.854492 14.744071 6.266460 -2.283446 8.558071 1.674977 -2.823460 10.700533 2.044508 -2.296120 8.540291 1.674510 0.206691 19.862572 -1.597573 0.597592 -4.687768 -1.746337 1.666671 -1.739548 -3.440196 -1.451827 -11.486562 4.416166 69.649835 -44.551929 -55.845533 11.615912 5.298753 -18.359611 -10.529435 0.713379 -4.481354 -7.095895 -12.091131 1.937433 -64.281647 -35.970919 70.491932 -3.839310 -13.630894 -4.948465 -24.603391 -27.646762 2.708849 83.535595 87.578351 81.323485 2.707088 -28.584443 -2.741489 -1.317410 2.671046 -0.589766 -17.895108 -45.250597 6.321874 172.725126 72.484575 170.426282 0.430465 -23.261323 -0.341605 -1.635145 -3.438691 -0.723128
-47.480672 55.771107 44.305248 -166.955578 -30.339260 -11.416202 -3.853207 14.747203 6.267107 -2.278854 8.559401 1.675447 -2.817149 10.703498 2.045168 -2.297194 8.541677 1.676859 0.210287 19.858110 -1.595702 0.620793 -4.679431 -1.750286 1.679610 -1.734919 -3.442454 -1.474385 -11.496409 4.414968 69.666623 -44.551419 -55.853956 11.611863 5.293379 -18.365216 -10.531919 0.707364 -4.479099 -7.094208 -12.087163 1.930306 -64.319898 -35.977561 70.508334 -3.820913 -13.608661 -4.946471 -24.598853 -27.650835 2.709029 83.554262 87.579822 81.342836 2.702843 -28.588456 -2.737087 -1.314953 2.671531 -0.590160 -17.890780 -45.256862 6.316222 172.716802 72.480954 170.420584 0.429744 -23.253994 -0.341212 -1.636710 -3.446539 -0.723195
-47.483186 55.772647 44.305862 -166.960430 -30.338508 -11.413242 -3.849274 14.750139 6.267337 -2.273856 8.559537 1.676169 -2.812264 10.705743 2.045488 -2.287207 8.548549 1.675797 0.219686 19.858445 -1.591446 0.628176 -4.678757 -1.747070 1.667407 -1.746076 -3.437476 -1.481320 -11.494177 4.411854 69.678811 -44.555146 -55.856862 11.610483 5.291984 -18.372159 -10.528910 0.709674 -4.474702 -7.108863 -12.091882 1.929741 -64.345502 -35.980387 70.521484 -3.812364 -13.597721 -4.941199 -24.588406 -27.655251 2.708073 83.588607 87.581512 81.380497 2.697349 -28.590718 -2.734514 -1.310655 2.670117 -0.588133 -17.883695 -45.261408 6.312559 172.708165 72.477297 170.413582 0.422377 -23.247068 -0.338519 -1.634254 -3.454283 -0.722910
-47.486115 55.774528 44.306200 -166.962503 -30.339950 -11.412079 -3.843155 14.755109 6.273357 -2.272207 8.557910 1.673879 -2.807656 10.707508 2.045738 -2.281448 8.554406 1.674883 0.229018 19.860054 -1.587923 0.628841 -4.679629 -1.743820 1.658766 -1.754797 -3.433711 -1.488511 -11.483228 4.405979 69.721776 -44.569761 -55.876781 11.604900 5.309533 -18.383899 -10.533140 0.709866 -4.473172 -7.104509 -12.081768 1.938311 -64.379325 -35.999541 70.542173 -3.805229 -13.590446 -4.938554 -24.577722 -27.656961 2.703491 83.615202 87.581153 81.412149 2.695497 -28.592283 -2.732342 -1.309344 2.664350 -0.588341 -17.877855 -45.264464 6.308289 172.695525 72.472345 170.400011 0.420775 -23.237220 -0.333919 -1.636963 -3.464863 -0.724207
-47.489333 55.776553 44.306535 -166.963446 -30.341710 -11.411885 -3.839561 14.756924 6.274560 -2.268187 8.559977 1.675176 -2.803411 10.709645 2.045982 -2.275777 8.554646 1.678774 0.237296 19.865218 -1.586330 0.613621 -4.686000 -1.739359 1.654605 -1.750791 -3.435741 -1.498632 -11.466164 4.411755 69.756949 -44.575592 -55.910766 11.601880 5.309573 -18.390465 -10.532133 0.718661 -4.477482 -7.108560 -12.086538 1.943992 -64.456062 -36.005882 70.560286 -3.793524 -13.544429 -4.916219 -24.566217 -27.657346 2.697442 83.616176 87.579229 81.418565 2.696806 -28.595284 -2.729183 -1.313840 2.665020 -0.590499 -17.874438 -45.267190 6.303156 172.664250 72.466029 170.368941 0.416470 -23.226224 -0.331979 -1.636699 -3.476529 -0.725858
-47.491944 55.778793 44.306763 -166.964674 -30.343845 -11.416673 -3.834521 14.759428 6.279679 -2.267095 8.561242 1.675343 -2.800350 10.712318 2.047150 -2.272720 8.554824 1.675840 0.247869 19.871453 -1.581578 0.623645 -4.679098 -1.736521 1.661641 -1.746176 -3.434409 -1.505852 -11.462595 4.418162 69.771864 -44.578095 -55.929696 11.596031 5.312542 -18.392263 -10.532849 0.721272 -4.472488 -7.102428 -12.086918 1.943381 -64.487201 -36.006490 70.570401 -3.787599 -13.533553 -4.911196 -24.556509 -27.654336 2.700862 83.559518 87.579958 81.361083 2.702717 -28.597295 -2.722089 -1.327145 2.665993 -0.594006 -17.877075 -45.265863 6.306492 172.642014 72.460617 170.345909 0.413389 -23.223650 -0.330671 -1.637527 -3.481571 -0.726735
-47.494969 55.781004 44.307072 -166.961137 -30.344972 -11.421853 -3.835572 14.761537 6.282949 -2.264135 8.562816 1.677362 -2.798728 10.713610 2.048252 -2.272679 8.558365 1.673430 0.256471 19.875655 -1.580122 0.632605 -4.674206 -1.737081 1.661416 -1.750440 -3.433265 -1.505177 -11.459562 4.419385 69.787152 -44.581577 -55.944791 11.593480 5.321119 -18.391620 -10.528899 0.720769 -4.470911 -7.107153 -12.090360 1.944844 -64.515912 -36.004679 70.577221 -3.790306 -13.519933 -4.897394 -24.551639 -27.651240 2.697603 83.502441 87.575916 81.310444 2.701169 -28.602058 -2.722417 -1.327626 2.669354 -0.593186 -17.883806 -45.265355 6.307347 172.631784 72.457049 170.333548 0.415477 -23.221183 -0.330621 -1.639348 -3.485019 -0.727546
